<svg width="15" height="15" viewBox="0 0 15 15" fill="none"
    xmlns="http://www.w3.org/2000/svg">
    <g clip-path="url(#clip0_144_3421)">
        <path d="M13.6133 5.10742C13.6133 4.8422 13.5079 4.58785 13.3204 4.40031C13.1329 4.21278 12.8785 4.10742 12.6133 4.10742H10.6133L9.11328 2.10742H5.11328L3.61328 4.10742H1.61328C1.34806 4.10742 1.09371 4.21278 0.906174 4.40031C0.718638 4.58785 0.613281 4.8422 0.613281 5.10742V11.1074C0.613281 11.3726 0.718638 11.627 0.906174 11.8145C1.09371 12.002 1.34806 12.1074 1.61328 12.1074H12.6133C12.8785 12.1074 13.1329 12.002 13.3204 11.8145C13.5079 11.627 13.6133 11.3726 13.6133 11.1074V5.10742Z" stroke="black" stroke-linecap="round" stroke-linejoin="round"/>
        <path d="M7.11328 9.85742C8.35592 9.85742 9.36328 8.85006 9.36328 7.60742C9.36328 6.36478 8.35592 5.35742 7.11328 5.35742C5.87064 5.35742 4.86328 6.36478 4.86328 7.60742C4.86328 8.85006 5.87064 9.85742 7.11328 9.85742Z" stroke="black" stroke-linecap="round" stroke-linejoin="round"/>
    </g>
    <defs>
        <clipPath id="clip0_144_3421">
            <rect width="14" height="14" fill="white" transform="translate(0.113281 0.107422)"/>
        </clipPath>
    </defs>
</svg>
    