<svg width="68" height="20" viewBox="0 0 68 20" fill="none"
    xmlns="http://www.w3.org/2000/svg">
    <path d="M15.5518 17.23C14.738 17.9217 13.8306 18.4548 12.8296 18.8291C11.8286 19.1953 10.7869 19.3784 9.70459 19.3784C8.87451 19.3784 8.07292 19.2686 7.2998 19.0488C6.53483 18.8372 5.81868 18.5361 5.15137 18.1455C4.48405 17.7467 3.8737 17.2747 3.32031 16.7295C2.76693 16.1761 2.29492 15.5658 1.9043 14.8984C1.51367 14.223 1.2085 13.4987 0.98877 12.7256C0.777181 11.9525 0.671387 11.1509 0.671387 10.3208C0.671387 9.49072 0.777181 8.6932 0.98877 7.92822C1.2085 7.16325 1.51367 6.4471 1.9043 5.77979C2.29492 5.10433 2.76693 4.49398 3.32031 3.94873C3.8737 3.39535 4.48405 2.92334 5.15137 2.53271C5.81868 2.14209 6.53483 1.84098 7.2998 1.62939C8.07292 1.40967 8.87451 1.2998 9.70459 1.2998C10.7869 1.2998 11.8286 1.48698 12.8296 1.86133C13.8306 2.22754 14.738 2.75651 15.5518 3.44824L13.7207 6.5C13.1917 5.96289 12.5814 5.54378 11.8896 5.24268C11.1979 4.93343 10.4696 4.77881 9.70459 4.77881C8.93962 4.77881 8.2194 4.92529 7.54395 5.21826C6.87663 5.51123 6.29069 5.90999 5.78613 6.41455C5.28158 6.91097 4.88281 7.49691 4.58984 8.17236C4.29688 8.83968 4.15039 9.55583 4.15039 10.3208C4.15039 11.0939 4.29688 11.8182 4.58984 12.4937C4.88281 13.1691 5.28158 13.7591 5.78613 14.2637C6.29069 14.7682 6.87663 15.167 7.54395 15.46C8.2194 15.7529 8.93962 15.8994 9.70459 15.8994C10.144 15.8994 10.5713 15.8465 10.9863 15.7407C11.4014 15.6349 11.7961 15.4884 12.1704 15.3013V10.3208H15.5518V17.23ZM21.8262 2.37402C21.8262 2.68327 21.7651 2.97217 21.6431 3.24072C21.5291 3.50928 21.3704 3.74528 21.167 3.94873C20.9635 4.14404 20.7235 4.30273 20.4468 4.4248C20.1782 4.53874 19.8893 4.5957 19.5801 4.5957C19.2708 4.5957 18.9779 4.53874 18.7012 4.4248C18.4326 4.30273 18.1966 4.14404 17.9932 3.94873C17.7979 3.74528 17.6392 3.50928 17.5171 3.24072C17.4032 2.97217 17.3462 2.68327 17.3462 2.37402C17.3462 2.07292 17.4032 1.78809 17.5171 1.51953C17.6392 1.24284 17.7979 1.00684 17.9932 0.811523C18.1966 0.608073 18.4326 0.449382 18.7012 0.335449C18.9779 0.213379 19.2708 0.152344 19.5801 0.152344C19.8893 0.152344 20.1782 0.213379 20.4468 0.335449C20.7235 0.449382 20.9635 0.608073 21.167 0.811523C21.3704 1.00684 21.5291 1.24284 21.6431 1.51953C21.7651 1.78809 21.8262 2.07292 21.8262 2.37402ZM21.2524 19H17.8955V5.92627H21.2524V19ZM40.3076 14.2759C40.3076 14.9595 40.1774 15.6064 39.917 16.2168C39.6566 16.819 39.2985 17.3439 38.8428 17.7915C38.3952 18.2391 37.8662 18.5931 37.2559 18.8535C36.6536 19.1139 36.0067 19.2441 35.3149 19.2441C34.6965 19.2441 34.1024 19.1383 33.5327 18.9268C32.9631 18.707 32.4463 18.3896 31.9824 17.9746C31.5267 18.3896 31.014 18.707 30.4443 18.9268C29.8828 19.1383 29.2887 19.2441 28.6621 19.2441C27.9704 19.2441 27.3234 19.1139 26.7212 18.8535C26.119 18.5931 25.59 18.2391 25.1343 17.7915C24.6867 17.3439 24.3327 16.819 24.0723 16.2168C23.8118 15.6064 23.6816 14.9595 23.6816 14.2759V5.95068H27.0142V14.2759C27.0142 14.5037 27.0549 14.7194 27.1362 14.9229C27.2257 15.1182 27.3438 15.2931 27.4902 15.4478C27.6449 15.5942 27.8198 15.7122 28.0151 15.8018C28.2186 15.8831 28.4342 15.9238 28.6621 15.9238C28.89 15.9238 29.1056 15.8831 29.3091 15.8018C29.5125 15.7122 29.6916 15.5942 29.8462 15.4478C30.0008 15.2931 30.1188 15.1182 30.2002 14.9229C30.2897 14.7194 30.3345 14.5037 30.3345 14.2759V5.95068H33.6548V14.2759C33.6548 14.5037 33.6995 14.7194 33.7891 14.9229C33.8786 15.1182 33.9966 15.2931 34.1431 15.4478C34.2977 15.5942 34.4727 15.7122 34.668 15.8018C34.8714 15.8831 35.0871 15.9238 35.3149 15.9238C35.5428 15.9238 35.7585 15.8831 35.9619 15.8018C36.1654 15.7122 36.3403 15.5942 36.4868 15.4478C36.6414 15.2931 36.7635 15.1182 36.853 14.9229C36.9425 14.7194 36.9873 14.5037 36.9873 14.2759V5.95068H40.3076V14.2759ZM46.6553 2.37402C46.6553 2.68327 46.5942 2.97217 46.4722 3.24072C46.3582 3.50928 46.1995 3.74528 45.9961 3.94873C45.7926 4.14404 45.5526 4.30273 45.2759 4.4248C45.0073 4.53874 44.7184 4.5957 44.4092 4.5957C44.0999 4.5957 43.807 4.53874 43.5303 4.4248C43.2617 4.30273 43.0257 4.14404 42.8223 3.94873C42.627 3.74528 42.4683 3.50928 42.3462 3.24072C42.2323 2.97217 42.1753 2.68327 42.1753 2.37402C42.1753 2.07292 42.2323 1.78809 42.3462 1.51953C42.4683 1.24284 42.627 1.00684 42.8223 0.811523C43.0257 0.608073 43.2617 0.449382 43.5303 0.335449C43.807 0.213379 44.0999 0.152344 44.4092 0.152344C44.7184 0.152344 45.0073 0.213379 45.2759 0.335449C45.5526 0.449382 45.7926 0.608073 45.9961 0.811523C46.1995 1.00684 46.3582 1.24284 46.4722 1.51953C46.5942 1.78809 46.6553 2.07292 46.6553 2.37402ZM46.0815 19H42.7246V5.92627H46.0815V19ZM61.7188 12.3472C61.7188 13.3726 61.5438 14.3084 61.1938 15.1548C60.8439 16.0011 60.3678 16.7295 59.7656 17.3398C59.1634 17.9421 58.4554 18.41 57.6416 18.7437C56.8359 19.0773 55.9692 19.2441 55.0415 19.2441C54.1219 19.2441 53.2552 19.0732 52.4414 18.7314C51.6357 18.3896 50.9277 17.9136 50.3174 17.3032C49.7152 16.6929 49.2391 15.9686 48.8892 15.1304C48.5392 14.284 48.3643 13.3563 48.3643 12.3472V0.726074H51.709V6.82959C51.888 6.60173 52.1037 6.39827 52.356 6.21924C52.6164 6.0402 52.8931 5.89372 53.186 5.77979C53.4871 5.66585 53.7964 5.5804 54.1138 5.52344C54.4312 5.45833 54.7404 5.42578 55.0415 5.42578C55.9692 5.42578 56.8359 5.60075 57.6416 5.95068C58.4554 6.29248 59.1634 6.77262 59.7656 7.39111C60.3678 8.0096 60.8439 8.74202 61.1938 9.58838C61.5438 10.4266 61.7188 11.3462 61.7188 12.3472ZM58.3618 12.3472C58.3618 11.8426 58.2723 11.3747 58.0933 10.9434C57.9224 10.5039 57.6864 10.1255 57.3853 9.80811C57.0841 9.49072 56.7301 9.24251 56.3232 9.06348C55.9245 8.88444 55.4972 8.79492 55.0415 8.79492C54.5858 8.79492 54.1545 8.89665 53.7476 9.1001C53.3488 9.29541 52.9989 9.5599 52.6978 9.89355C52.3966 10.2191 52.1606 10.5975 51.9897 11.0288C51.8188 11.452 51.7334 11.8914 51.7334 12.3472C51.7334 12.8517 51.8188 13.3197 51.9897 13.751C52.1606 14.1823 52.3966 14.5566 52.6978 14.874C52.9989 15.1914 53.3488 15.4437 53.7476 15.6309C54.1545 15.8099 54.5858 15.8994 55.0415 15.8994C55.4972 15.8994 55.9245 15.8099 56.3232 15.6309C56.7301 15.4437 57.0841 15.1914 57.3853 14.874C57.6864 14.5566 57.9224 14.1823 58.0933 13.751C58.2723 13.3197 58.3618 12.8517 58.3618 12.3472ZM67.5049 2.37402C67.5049 2.68327 67.4438 2.97217 67.3218 3.24072C67.2078 3.50928 67.0492 3.74528 66.8457 3.94873C66.6423 4.14404 66.4022 4.30273 66.1255 4.4248C65.8569 4.53874 65.568 4.5957 65.2588 4.5957C64.9495 4.5957 64.6566 4.53874 64.3799 4.4248C64.1113 4.30273 63.8753 4.14404 63.6719 3.94873C63.4766 3.74528 63.3179 3.50928 63.1958 3.24072C63.0819 2.97217 63.0249 2.68327 63.0249 2.37402C63.0249 2.07292 63.0819 1.78809 63.1958 1.51953C63.3179 1.24284 63.4766 1.00684 63.6719 0.811523C63.8753 0.608073 64.1113 0.449382 64.3799 0.335449C64.6566 0.213379 64.9495 0.152344 65.2588 0.152344C65.568 0.152344 65.8569 0.213379 66.1255 0.335449C66.4022 0.449382 66.6423 0.608073 66.8457 0.811523C67.0492 1.00684 67.2078 1.24284 67.3218 1.51953C67.4438 1.78809 67.5049 2.07292 67.5049 2.37402ZM66.9312 19H63.5742V5.92627H66.9312V19Z" fill="#41747B"/>
</svg>
    