<svg width="12" height="15" viewBox="0 0 12 15" fill="none"
    xmlns="http://www.w3.org/2000/svg">
    <path d="M8.61328 6.60742C8.61328 7.27046 8.34989 7.90635 7.88105 8.37519C7.41221 8.84403 6.77632 9.10742 6.11328 9.10742C5.45024 9.10742 4.81435 8.84403 4.34551 8.37519C3.87667 7.90635 3.61328 7.27046 3.61328 6.60742V3.10742C3.61328 2.44438 3.87667 1.80849 4.34551 1.33965C4.81435 0.870814 5.45024 0.607422 6.11328 0.607422C6.77632 0.607422 7.41221 0.870814 7.88105 1.33965C8.34989 1.80849 8.61328 2.44438 8.61328 3.10742V6.60742Z" stroke="black" stroke-linecap="round" stroke-linejoin="round"/>
    <path d="M11.1133 7.10742C11.1146 7.69874 10.9991 8.28449 10.7735 8.83105C10.5478 9.37761 10.2164 9.87421 9.79818 10.2923C9.38008 10.7104 8.88349 11.0419 8.33692 11.2675C7.79036 11.4932 7.20461 11.6087 6.61329 11.6074H5.61329C5.02197 11.6087 4.43622 11.4932 3.88966 11.2675C3.3431 11.0419 2.8465 10.7104 2.42837 10.2923C2.01024 9.87421 1.67883 9.37761 1.45315 8.83105C1.22747 8.28449 1.11197 7.69874 1.11329 7.10742" stroke="black" stroke-linecap="round" stroke-linejoin="round"/>
    <path d="M6.11328 11.6074V13.6074" stroke="black" stroke-linecap="round" stroke-linejoin="round"/>
</svg>
    