<svg width="15" height="15" viewBox="0 0 15 15" fill="none"
    xmlns="http://www.w3.org/2000/svg">
    <g clip-path="url(#clip0_144_1636)">
        <path d="M7.11328 8.10742C8.49399 8.10742 9.61328 6.98813 9.61328 5.60742C9.61328 4.22671 8.49399 3.10742 7.11328 3.10742C5.73257 3.10742 4.61328 4.22671 4.61328 5.60742C4.61328 6.98813 5.73257 8.10742 7.11328 8.10742Z" stroke="black" stroke-linecap="round" stroke-linejoin="round"/>
        <path d="M2.84326 12.0074C3.2895 11.2749 3.91667 10.6695 4.66447 10.2495C5.41227 9.82941 6.25555 9.60876 7.11326 9.60876C7.97097 9.60876 8.81425 9.82941 9.56205 10.2495C10.3099 10.6695 10.937 11.2749 11.3833 12.0074" stroke="black" stroke-linecap="round" stroke-linejoin="round"/>
        <path d="M7.11328 13.6074C10.7032 13.6074 13.6133 10.6973 13.6133 7.10742C13.6133 3.51757 10.7032 0.607422 7.11328 0.607422C3.52343 0.607422 0.613281 3.51757 0.613281 7.10742C0.613281 10.6973 3.52343 13.6074 7.11328 13.6074Z" stroke="black" stroke-linecap="round" stroke-linejoin="round"/>
    </g>
    <defs>
        <clipPath id="clip0_144_1636">
            <rect width="14" height="14" fill="white" transform="translate(0.113281 0.107422)"/>
        </clipPath>
    </defs>
</svg>
    