<svg width="15" height="15" viewBox="0 0 15 15" fill="none"
    xmlns="http://www.w3.org/2000/svg">
    <g clip-path="url(#clip0_144_419)">
        <path d="M5.34344 2.35742L5.77344 1.24742C5.84596 1.05949 5.97355 0.897833 6.13949 0.783634C6.30544 0.669436 6.502 0.608017 6.70344 0.607422H7.52344C7.72488 0.608017 7.92145 0.669436 8.08739 0.783634C8.25334 0.897833 8.38092 1.05949 8.45344 1.24742L8.88344 2.35742L10.3434 3.19742L11.5234 3.01742C11.7199 2.99075 11.9199 3.02309 12.098 3.11034C12.276 3.19759 12.4241 3.3358 12.5234 3.50742L12.9234 4.20742C13.0259 4.38177 13.0732 4.5831 13.0589 4.78484C13.0446 4.98658 12.9695 5.17925 12.8434 5.33742L12.1134 6.26742V7.94742L12.8634 8.87742C12.9895 9.03559 13.0646 9.22826 13.0789 9.43C13.0932 9.63174 13.0459 9.83307 12.9434 10.0074L12.5434 10.7074C12.4441 10.879 12.296 11.0172 12.118 11.1045C11.9399 11.1917 11.7399 11.2241 11.5434 11.1974L10.3634 11.0174L8.90344 11.8574L8.47344 12.9674C8.40092 13.1553 8.27334 13.317 8.10739 13.4312C7.94145 13.5454 7.74488 13.6068 7.54344 13.6074H6.70344C6.502 13.6068 6.30544 13.5454 6.13949 13.4312C5.97355 13.317 5.84596 13.1553 5.77344 12.9674L5.34344 11.8574L3.88344 11.0174L2.70344 11.1974C2.50696 11.2241 2.30698 11.1917 2.12892 11.1045C1.95087 11.0172 1.80277 10.879 1.70344 10.7074L1.30344 10.0074C1.20094 9.83307 1.15372 9.63174 1.168 9.43C1.18228 9.22826 1.2574 9.03559 1.38344 8.87742L2.11344 7.94742V6.26742L1.36344 5.33742C1.2374 5.17925 1.16228 4.98658 1.148 4.78484C1.13372 4.5831 1.18094 4.38177 1.28344 4.20742L1.68344 3.50742C1.78277 3.3358 1.93087 3.19759 2.10892 3.11034C2.28698 3.02309 2.48696 2.99075 2.68344 3.01742L3.86344 3.19742L5.34344 2.35742ZM5.11344 7.10742C5.11344 7.50298 5.23074 7.88966 5.4505 8.21856C5.67027 8.54746 5.98262 8.8038 6.34807 8.95518C6.71353 9.10655 7.11566 9.14616 7.50362 9.06899C7.89158 8.99182 8.24795 8.80134 8.52766 8.52163C8.80736 8.24193 8.99784 7.88556 9.07501 7.4976C9.15218 7.10964 9.11258 6.70751 8.9612 6.34205C8.80983 5.9766 8.55348 5.66424 8.22458 5.44448C7.89568 5.22472 7.509 5.10742 7.11344 5.10742C6.58301 5.10742 6.0743 5.31813 5.69923 5.69321C5.32416 6.06828 5.11344 6.57699 5.11344 7.10742Z" stroke="black" stroke-linecap="round" stroke-linejoin="round"/>
    </g>
    <defs>
        <clipPath id="clip0_144_419">
            <rect width="14" height="14" fill="white" transform="translate(0.113281 0.107422)"/>
        </clipPath>
    </defs>
</svg>
    